<svg id="svg" version="1.1" width="400" height="440" xmlns="http://www.w3.org/2000/svg" xmlns:xlink="http://www.w3.org/1999/xlink" style="display: block;"><g id="svgg"><path id="path0" d="M90.750 3.946 C 90.750 4.207,141.405 102.052,203.316 221.381 L 315.881 438.342 356.894 438.368 L 397.906 438.394 397.906 393.368 L 397.906 348.342 383.595 348.342 L 369.284 348.342 369.284 220.942 L 369.284 93.543 383.595 93.543 L 397.906 93.543 397.906 48.517 L 397.906 3.490 331.130 3.490 L 264.354 3.490 264.860 126.866 C 265.138 194.722,265.130 250.005,264.842 249.716 C 264.553 249.428,236.929 193.988,203.455 126.516 L 142.593 3.839 116.672 3.656 C 102.415 3.556,90.750 3.686,90.750 3.946 " stroke="none" fill="#000000" fill-rule="evenodd"></path><path id="path1" d="M264.894 180.454 C 264.894 198.115,264.985 205.240,265.095 196.287 C 265.206 187.334,265.206 172.884,265.095 164.176 C 264.984 155.467,264.894 162.792,264.894 180.454 M376.478 348.165 C 380.626 348.289,387.223 348.288,391.137 348.164 C 395.052 348.040,391.658 347.939,383.595 347.939 C 375.532 347.940,372.329 348.042,376.478 348.165 " stroke="none" fill="#3f3f3f" fill-rule="evenodd"></path><path id="path2" d="M3.820 48.517 C 3.820 73.857,3.907 84.122,4.014 71.328 C 4.120 58.534,4.120 37.801,4.014 25.255 C 3.907 12.708,3.820 23.176,3.820 48.517 M75.567 3.310 C 78.159 3.444,82.400 3.444,84.991 3.310 C 87.583 3.176,85.462 3.066,80.279 3.066 C 75.096 3.066,72.976 3.176,75.567 3.310 M3.820 393.368 C 3.820 418.709,3.907 428.974,4.014 416.180 C 4.120 403.386,4.120 382.653,4.014 370.106 C 3.907 357.560,3.820 368.028,3.820 393.368 " stroke="none" fill="#efefef" fill-rule="evenodd"></path><path id="path3" d="M4.188 48.511 L 4.188 93.543 18.499 93.543 L 32.810 93.543 32.810 220.942 L 32.810 348.342 18.499 348.342 L 4.188 348.342 4.188 393.368 L 4.188 438.394 70.506 438.394 L 136.824 438.394 136.824 316.091 C 136.824 239.019,137.069 194.032,137.486 194.450 C 137.850 194.815,165.311 249.773,198.511 316.579 L 258.875 438.045 287.281 438.228 C 309.927 438.373,315.613 438.232,315.320 437.530 C 315.117 437.045,264.380 339.267,202.571 220.244 L 90.192 3.839 47.190 3.660 L 4.188 3.480 4.188 48.511 " stroke="none" fill="#cc0000" fill-rule="evenodd"></path><path id="path4" d="M20.768 3.315 C 30.079 3.425,45.314 3.425,54.625 3.315 C 63.935 3.205,56.318 3.115,37.696 3.115 C 19.075 3.115,11.457 3.205,20.768 3.315 M98.429 3.292 C 122.310 3.781,142.945 3.792,142.650 3.316 C 142.472 3.028,130.329 2.861,115.666 2.945 C 101.002 3.030,93.246 3.185,98.429 3.292 M264.043 43.805 L 264.212 84.817 264.398 44.157 L 264.584 3.497 331.419 3.316 L 398.255 3.134 331.065 2.963 L 263.874 2.792 264.043 43.805 M17.976 94.065 L 32.112 94.270 32.112 220.942 L 32.112 347.615 17.976 347.819 L 3.839 348.024 18.325 348.183 L 32.810 348.342 32.810 220.942 L 32.810 93.543 18.325 93.702 L 3.839 93.861 17.976 94.065 M369.607 94.415 C 369.425 94.895,369.357 152.147,369.456 221.640 L 369.637 347.993 369.810 221.131 L 369.983 94.270 384.119 94.065 L 398.255 93.861 384.097 93.702 C 373.293 93.580,369.860 93.750,369.607 94.415 M136.824 316.186 L 136.824 438.387 70.681 438.571 L 4.538 438.754 70.855 438.749 L 137.173 438.743 137.522 316.687 C 137.714 249.556,137.635 194.485,137.347 194.307 C 137.059 194.130,136.824 248.975,136.824 316.186 M264.421 230.434 C 264.312 240.453,264.459 248.797,264.747 248.974 C 265.035 249.152,265.271 240.954,265.271 230.757 C 265.271 220.560,265.124 212.216,264.944 212.216 C 264.765 212.216,264.529 220.414,264.421 230.434 M167.614 255.148 C 167.614 255.532,171.036 262.600,175.218 270.855 C 179.400 279.110,182.822 285.550,182.822 285.166 C 182.822 284.782,179.400 277.714,175.218 269.459 C 171.036 261.204,167.614 254.764,167.614 255.148 M226.951 374.520 C 226.951 374.904,230.373 381.972,234.555 390.227 C 238.737 398.482,242.159 404.921,242.159 404.538 C 242.159 404.154,238.737 397.086,234.555 388.831 C 230.373 380.576,226.951 374.136,226.951 374.520 M258.886 438.572 C 259.176 438.862,290.653 439.019,328.834 438.921 L 398.255 438.743 328.307 438.394 C 289.836 438.202,258.597 438.283,258.886 438.572 " stroke="none" fill="#f09b9f" fill-rule="evenodd"></path></g></svg>